<?xml version="1.0" encoding="utf-8"?>
<!-- Generator: Adobe Illustrator 23.0.4, SVG Export Plug-In . SVG Version: 6.00 Build 0)  -->
<svg version="1.1" id="frame-top-frame" xmlns="http://www.w3.org/2000/svg" xmlns:xlink="http://www.w3.org/1999/xlink" x="0px"
	 y="0px" viewBox="0 0 279.1 355.1" style="enable-background:new 0 0 279.1 355.1;" xml:space="preserve">
<style type="text/css">
	.frame-color{fill:#000000;}
	.background-color{fill:#ffffff;}
	.text-color{fill:#FFFFFF;}
</style>
	
<svg xmlns="http://www.w3.org/2000/svg" xmlns:xlink="http://www.w3.org/1999/xlink" version="1.1" width="259.8" height="259.8" viewBox="0 0 2000 2000" x="9.7" y="9.6" shape-rendering="crispEdges"><defs/><rect x="0" y="0" width="2000" height="2000" fill="#ffffff"/><rect x="629" y="173" width="57" height="57" fill="#000000"/><rect x="743" y="173" width="57" height="57" fill="#000000"/><rect x="800" y="173" width="57" height="57" fill="#000000"/><rect x="914" y="173" width="57" height="57" fill="#000000"/><rect x="971" y="173" width="57" height="57" fill="#000000"/><rect x="1028" y="173" width="57" height="57" fill="#000000"/><rect x="1085" y="173" width="57" height="57" fill="#000000"/><rect x="629" y="230" width="57" height="57" fill="#000000"/><rect x="857" y="230" width="57" height="57" fill="#000000"/><rect x="971" y="230" width="57" height="57" fill="#000000"/><rect x="1028" y="230" width="57" height="57" fill="#000000"/><rect x="1085" y="230" width="57" height="57" fill="#000000"/><rect x="1142" y="230" width="57" height="57" fill="#000000"/><rect x="1256" y="230" width="57" height="57" fill="#000000"/><rect x="1313" y="230" width="57" height="57" fill="#000000"/><rect x="629" y="287" width="57" height="57" fill="#000000"/><rect x="686" y="287" width="57" height="57" fill="#000000"/><rect x="914" y="287" width="57" height="57" fill="#000000"/><rect x="1028" y="287" width="57" height="57" fill="#000000"/><rect x="1085" y="287" width="57" height="57" fill="#000000"/><rect x="1256" y="287" width="57" height="57" fill="#000000"/><rect x="743" y="344" width="57" height="57" fill="#000000"/><rect x="914" y="344" width="57" height="57" fill="#000000"/><rect x="971" y="344" width="57" height="57" fill="#000000"/><rect x="1142" y="344" width="57" height="57" fill="#000000"/><rect x="1199" y="344" width="57" height="57" fill="#000000"/><rect x="1313" y="344" width="57" height="57" fill="#000000"/><rect x="686" y="401" width="57" height="57" fill="#000000"/><rect x="743" y="401" width="57" height="57" fill="#000000"/><rect x="857" y="401" width="57" height="57" fill="#000000"/><rect x="914" y="401" width="57" height="57" fill="#000000"/><rect x="1199" y="401" width="57" height="57" fill="#000000"/><rect x="629" y="458" width="57" height="57" fill="#000000"/><rect x="743" y="458" width="57" height="57" fill="#000000"/><rect x="857" y="458" width="57" height="57" fill="#000000"/><rect x="971" y="458" width="57" height="57" fill="#000000"/><rect x="1028" y="458" width="57" height="57" fill="#000000"/><rect x="1199" y="458" width="57" height="57" fill="#000000"/><rect x="1313" y="458" width="57" height="57" fill="#000000"/><rect x="629" y="515" width="57" height="57" fill="#000000"/><rect x="743" y="515" width="57" height="57" fill="#000000"/><rect x="857" y="515" width="57" height="57" fill="#000000"/><rect x="971" y="515" width="57" height="57" fill="#000000"/><rect x="1085" y="515" width="57" height="57" fill="#000000"/><rect x="1199" y="515" width="57" height="57" fill="#000000"/><rect x="1313" y="515" width="57" height="57" fill="#000000"/><rect x="629" y="572" width="57" height="57" fill="#000000"/><rect x="686" y="572" width="57" height="57" fill="#000000"/><rect x="743" y="572" width="57" height="57" fill="#000000"/><rect x="914" y="572" width="57" height="57" fill="#000000"/><rect x="971" y="572" width="57" height="57" fill="#000000"/><rect x="1028" y="572" width="57" height="57" fill="#000000"/><rect x="1085" y="572" width="57" height="57" fill="#000000"/><rect x="1199" y="572" width="57" height="57" fill="#000000"/><rect x="1256" y="572" width="57" height="57" fill="#000000"/><rect x="1313" y="572" width="57" height="57" fill="#000000"/><rect x="287" y="629" width="57" height="57" fill="#000000"/><rect x="344" y="629" width="57" height="57" fill="#000000"/><rect x="401" y="629" width="57" height="57" fill="#000000"/><rect x="515" y="629" width="57" height="57" fill="#000000"/><rect x="629" y="629" width="57" height="57" fill="#000000"/><rect x="800" y="629" width="57" height="57" fill="#000000"/><rect x="914" y="629" width="57" height="57" fill="#000000"/><rect x="1199" y="629" width="57" height="57" fill="#000000"/><rect x="1370" y="629" width="57" height="57" fill="#000000"/><rect x="1427" y="629" width="57" height="57" fill="#000000"/><rect x="1484" y="629" width="57" height="57" fill="#000000"/><rect x="1655" y="629" width="57" height="57" fill="#000000"/><rect x="1712" y="629" width="57" height="57" fill="#000000"/><rect x="1769" y="629" width="57" height="57" fill="#000000"/><rect x="173" y="686" width="57" height="57" fill="#000000"/><rect x="230" y="686" width="57" height="57" fill="#000000"/><rect x="287" y="686" width="57" height="57" fill="#000000"/><rect x="401" y="686" width="57" height="57" fill="#000000"/><rect x="458" y="686" width="57" height="57" fill="#000000"/><rect x="572" y="686" width="57" height="57" fill="#000000"/><rect x="1313" y="686" width="57" height="57" fill="#000000"/><rect x="1370" y="686" width="57" height="57" fill="#000000"/><rect x="1427" y="686" width="57" height="57" fill="#000000"/><rect x="1541" y="686" width="57" height="57" fill="#000000"/><rect x="1712" y="686" width="57" height="57" fill="#000000"/><rect x="1769" y="686" width="57" height="57" fill="#000000"/><rect x="230" y="743" width="57" height="57" fill="#000000"/><rect x="287" y="743" width="57" height="57" fill="#000000"/><rect x="344" y="743" width="57" height="57" fill="#000000"/><rect x="401" y="743" width="57" height="57" fill="#000000"/><rect x="458" y="743" width="57" height="57" fill="#000000"/><rect x="515" y="743" width="57" height="57" fill="#000000"/><rect x="572" y="743" width="57" height="57" fill="#000000"/><rect x="629" y="743" width="57" height="57" fill="#000000"/><rect x="1655" y="743" width="57" height="57" fill="#000000"/><rect x="401" y="800" width="57" height="57" fill="#000000"/><rect x="458" y="800" width="57" height="57" fill="#000000"/><rect x="1313" y="800" width="57" height="57" fill="#000000"/><rect x="1427" y="800" width="57" height="57" fill="#000000"/><rect x="1484" y="800" width="57" height="57" fill="#000000"/><rect x="1541" y="800" width="57" height="57" fill="#000000"/><rect x="1598" y="800" width="57" height="57" fill="#000000"/><rect x="1655" y="800" width="57" height="57" fill="#000000"/><rect x="173" y="857" width="57" height="57" fill="#000000"/><rect x="230" y="857" width="57" height="57" fill="#000000"/><rect x="458" y="857" width="57" height="57" fill="#000000"/><rect x="515" y="857" width="57" height="57" fill="#000000"/><rect x="572" y="857" width="57" height="57" fill="#000000"/><rect x="1313" y="857" width="57" height="57" fill="#000000"/><rect x="1370" y="857" width="57" height="57" fill="#000000"/><rect x="1541" y="857" width="57" height="57" fill="#000000"/><rect x="1655" y="857" width="57" height="57" fill="#000000"/><rect x="1712" y="857" width="57" height="57" fill="#000000"/><rect x="173" y="914" width="57" height="57" fill="#000000"/><rect x="401" y="914" width="57" height="57" fill="#000000"/><rect x="572" y="914" width="57" height="57" fill="#000000"/><rect x="629" y="914" width="57" height="57" fill="#000000"/><rect x="1313" y="914" width="57" height="57" fill="#000000"/><rect x="1427" y="914" width="57" height="57" fill="#000000"/><rect x="1541" y="914" width="57" height="57" fill="#000000"/><rect x="1598" y="914" width="57" height="57" fill="#000000"/><rect x="1769" y="914" width="57" height="57" fill="#000000"/><rect x="173" y="971" width="57" height="57" fill="#000000"/><rect x="344" y="971" width="57" height="57" fill="#000000"/><rect x="401" y="971" width="57" height="57" fill="#000000"/><rect x="458" y="971" width="57" height="57" fill="#000000"/><rect x="515" y="971" width="57" height="57" fill="#000000"/><rect x="572" y="971" width="57" height="57" fill="#000000"/><rect x="629" y="971" width="57" height="57" fill="#000000"/><rect x="1484" y="971" width="57" height="57" fill="#000000"/><rect x="1655" y="971" width="57" height="57" fill="#000000"/><rect x="1769" y="971" width="57" height="57" fill="#000000"/><rect x="287" y="1028" width="57" height="57" fill="#000000"/><rect x="401" y="1028" width="57" height="57" fill="#000000"/><rect x="572" y="1028" width="57" height="57" fill="#000000"/><rect x="1370" y="1028" width="57" height="57" fill="#000000"/><rect x="1427" y="1028" width="57" height="57" fill="#000000"/><rect x="1484" y="1028" width="57" height="57" fill="#000000"/><rect x="1541" y="1028" width="57" height="57" fill="#000000"/><rect x="1655" y="1028" width="57" height="57" fill="#000000"/><rect x="1712" y="1028" width="57" height="57" fill="#000000"/><rect x="1769" y="1028" width="57" height="57" fill="#000000"/><rect x="173" y="1085" width="57" height="57" fill="#000000"/><rect x="230" y="1085" width="57" height="57" fill="#000000"/><rect x="344" y="1085" width="57" height="57" fill="#000000"/><rect x="401" y="1085" width="57" height="57" fill="#000000"/><rect x="515" y="1085" width="57" height="57" fill="#000000"/><rect x="572" y="1085" width="57" height="57" fill="#000000"/><rect x="1484" y="1085" width="57" height="57" fill="#000000"/><rect x="173" y="1142" width="57" height="57" fill="#000000"/><rect x="287" y="1142" width="57" height="57" fill="#000000"/><rect x="344" y="1142" width="57" height="57" fill="#000000"/><rect x="458" y="1142" width="57" height="57" fill="#000000"/><rect x="572" y="1142" width="57" height="57" fill="#000000"/><rect x="1313" y="1142" width="57" height="57" fill="#000000"/><rect x="1370" y="1142" width="57" height="57" fill="#000000"/><rect x="1427" y="1142" width="57" height="57" fill="#000000"/><rect x="1484" y="1142" width="57" height="57" fill="#000000"/><rect x="1598" y="1142" width="57" height="57" fill="#000000"/><rect x="1712" y="1142" width="57" height="57" fill="#000000"/><rect x="173" y="1199" width="57" height="57" fill="#000000"/><rect x="344" y="1199" width="57" height="57" fill="#000000"/><rect x="401" y="1199" width="57" height="57" fill="#000000"/><rect x="515" y="1199" width="57" height="57" fill="#000000"/><rect x="572" y="1199" width="57" height="57" fill="#000000"/><rect x="1313" y="1199" width="57" height="57" fill="#000000"/><rect x="1370" y="1199" width="57" height="57" fill="#000000"/><rect x="1655" y="1199" width="57" height="57" fill="#000000"/><rect x="173" y="1256" width="57" height="57" fill="#000000"/><rect x="344" y="1256" width="57" height="57" fill="#000000"/><rect x="458" y="1256" width="57" height="57" fill="#000000"/><rect x="1313" y="1256" width="57" height="57" fill="#000000"/><rect x="1427" y="1256" width="57" height="57" fill="#000000"/><rect x="1541" y="1256" width="57" height="57" fill="#000000"/><rect x="1598" y="1256" width="57" height="57" fill="#000000"/><rect x="1712" y="1256" width="57" height="57" fill="#000000"/><rect x="1769" y="1256" width="57" height="57" fill="#000000"/><rect x="173" y="1313" width="57" height="57" fill="#000000"/><rect x="344" y="1313" width="57" height="57" fill="#000000"/><rect x="515" y="1313" width="57" height="57" fill="#000000"/><rect x="572" y="1313" width="57" height="57" fill="#000000"/><rect x="857" y="1313" width="57" height="57" fill="#000000"/><rect x="914" y="1313" width="57" height="57" fill="#000000"/><rect x="1199" y="1313" width="57" height="57" fill="#000000"/><rect x="1313" y="1313" width="57" height="57" fill="#000000"/><rect x="1370" y="1313" width="57" height="57" fill="#000000"/><rect x="1427" y="1313" width="57" height="57" fill="#000000"/><rect x="1484" y="1313" width="57" height="57" fill="#000000"/><rect x="1541" y="1313" width="57" height="57" fill="#000000"/><rect x="1712" y="1313" width="57" height="57" fill="#000000"/><rect x="1769" y="1313" width="57" height="57" fill="#000000"/><rect x="629" y="1370" width="57" height="57" fill="#000000"/><rect x="857" y="1370" width="57" height="57" fill="#000000"/><rect x="914" y="1370" width="57" height="57" fill="#000000"/><rect x="971" y="1370" width="57" height="57" fill="#000000"/><rect x="1028" y="1370" width="57" height="57" fill="#000000"/><rect x="1085" y="1370" width="57" height="57" fill="#000000"/><rect x="1199" y="1370" width="57" height="57" fill="#000000"/><rect x="1256" y="1370" width="57" height="57" fill="#000000"/><rect x="1313" y="1370" width="57" height="57" fill="#000000"/><rect x="1541" y="1370" width="57" height="57" fill="#000000"/><rect x="1598" y="1370" width="57" height="57" fill="#000000"/><rect x="1769" y="1370" width="57" height="57" fill="#000000"/><rect x="743" y="1427" width="57" height="57" fill="#000000"/><rect x="914" y="1427" width="57" height="57" fill="#000000"/><rect x="1142" y="1427" width="57" height="57" fill="#000000"/><rect x="1256" y="1427" width="57" height="57" fill="#000000"/><rect x="1313" y="1427" width="57" height="57" fill="#000000"/><rect x="1427" y="1427" width="57" height="57" fill="#000000"/><rect x="1541" y="1427" width="57" height="57" fill="#000000"/><rect x="1598" y="1427" width="57" height="57" fill="#000000"/><rect x="1655" y="1427" width="57" height="57" fill="#000000"/><rect x="1712" y="1427" width="57" height="57" fill="#000000"/><rect x="686" y="1484" width="57" height="57" fill="#000000"/><rect x="914" y="1484" width="57" height="57" fill="#000000"/><rect x="1256" y="1484" width="57" height="57" fill="#000000"/><rect x="1313" y="1484" width="57" height="57" fill="#000000"/><rect x="1541" y="1484" width="57" height="57" fill="#000000"/><rect x="1598" y="1484" width="57" height="57" fill="#000000"/><rect x="1712" y="1484" width="57" height="57" fill="#000000"/><rect x="1769" y="1484" width="57" height="57" fill="#000000"/><rect x="629" y="1541" width="57" height="57" fill="#000000"/><rect x="743" y="1541" width="57" height="57" fill="#000000"/><rect x="800" y="1541" width="57" height="57" fill="#000000"/><rect x="857" y="1541" width="57" height="57" fill="#000000"/><rect x="971" y="1541" width="57" height="57" fill="#000000"/><rect x="1028" y="1541" width="57" height="57" fill="#000000"/><rect x="1085" y="1541" width="57" height="57" fill="#000000"/><rect x="1142" y="1541" width="57" height="57" fill="#000000"/><rect x="1256" y="1541" width="57" height="57" fill="#000000"/><rect x="1313" y="1541" width="57" height="57" fill="#000000"/><rect x="1370" y="1541" width="57" height="57" fill="#000000"/><rect x="1427" y="1541" width="57" height="57" fill="#000000"/><rect x="1484" y="1541" width="57" height="57" fill="#000000"/><rect x="1541" y="1541" width="57" height="57" fill="#000000"/><rect x="629" y="1598" width="57" height="57" fill="#000000"/><rect x="686" y="1598" width="57" height="57" fill="#000000"/><rect x="743" y="1598" width="57" height="57" fill="#000000"/><rect x="800" y="1598" width="57" height="57" fill="#000000"/><rect x="914" y="1598" width="57" height="57" fill="#000000"/><rect x="971" y="1598" width="57" height="57" fill="#000000"/><rect x="1028" y="1598" width="57" height="57" fill="#000000"/><rect x="1142" y="1598" width="57" height="57" fill="#000000"/><rect x="1313" y="1598" width="57" height="57" fill="#000000"/><rect x="1370" y="1598" width="57" height="57" fill="#000000"/><rect x="1427" y="1598" width="57" height="57" fill="#000000"/><rect x="1541" y="1598" width="57" height="57" fill="#000000"/><rect x="1598" y="1598" width="57" height="57" fill="#000000"/><rect x="629" y="1655" width="57" height="57" fill="#000000"/><rect x="686" y="1655" width="57" height="57" fill="#000000"/><rect x="857" y="1655" width="57" height="57" fill="#000000"/><rect x="914" y="1655" width="57" height="57" fill="#000000"/><rect x="971" y="1655" width="57" height="57" fill="#000000"/><rect x="1142" y="1655" width="57" height="57" fill="#000000"/><rect x="1199" y="1655" width="57" height="57" fill="#000000"/><rect x="1370" y="1655" width="57" height="57" fill="#000000"/><rect x="1427" y="1655" width="57" height="57" fill="#000000"/><rect x="1484" y="1655" width="57" height="57" fill="#000000"/><rect x="1541" y="1655" width="57" height="57" fill="#000000"/><rect x="1655" y="1655" width="57" height="57" fill="#000000"/><rect x="1712" y="1655" width="57" height="57" fill="#000000"/><rect x="686" y="1712" width="57" height="57" fill="#000000"/><rect x="857" y="1712" width="57" height="57" fill="#000000"/><rect x="971" y="1712" width="57" height="57" fill="#000000"/><rect x="1085" y="1712" width="57" height="57" fill="#000000"/><rect x="1142" y="1712" width="57" height="57" fill="#000000"/><rect x="1199" y="1712" width="57" height="57" fill="#000000"/><rect x="1256" y="1712" width="57" height="57" fill="#000000"/><rect x="1313" y="1712" width="57" height="57" fill="#000000"/><rect x="1484" y="1712" width="57" height="57" fill="#000000"/><rect x="1598" y="1712" width="57" height="57" fill="#000000"/><rect x="1769" y="1712" width="57" height="57" fill="#000000"/><rect x="743" y="1769" width="57" height="57" fill="#000000"/><rect x="800" y="1769" width="57" height="57" fill="#000000"/><rect x="971" y="1769" width="57" height="57" fill="#000000"/><rect x="1028" y="1769" width="57" height="57" fill="#000000"/><rect x="1142" y="1769" width="57" height="57" fill="#000000"/><rect x="1199" y="1769" width="57" height="57" fill="#000000"/><rect x="1370" y="1769" width="57" height="57" fill="#000000"/><rect x="1484" y="1769" width="57" height="57" fill="#000000"/><rect x="1541" y="1769" width="57" height="57" fill="#000000"/><rect x="1598" y="1769" width="57" height="57" fill="#000000"/><svg version="1.1" id="Ebene_1" x="173" y="173" viewBox="0 0 700 700" style="enable-background:new 0 0 700 700;" xml:space="preserve" width="399" height="399" shape-rendering="auto">

<path fill="#000000" d="M21.2-0.1C9.5-0.1-0.1,9.5-0.1,21.2v78.8v100v100v100v100v100v78.8c0,11.7,9.5,21.3,21.3,21.3h657.6  c11.7,0,21.3-9.5,21.3-21.3V600V500V400V300V200v-100V21.2c0-11.7-9.5-21.3-21.3-21.3H21.2z M600,200v100v100v100v87.8  c0,6.8-5.5,12.2-12.2,12.2H112.2c-6.8,0-12.2-5.5-12.2-12.2V500V400V300V200v-87.8c0-6.8,5.5-12.2,12.2-12.2h475.6  c6.8,0,12.2,5.5,12.2,12.2V200z"/>
</svg>
<svg version="1.1" id="Ebene_1" x="173" y="173" viewBox="0 0 700 700" style="enable-background:new 0 0 700 700;" xml:space="preserve" width="399" height="399" shape-rendering="auto">

<path fill="#000000" d="M500,400V300v-78.8c0-11.7-9.5-21.3-21.3-21.3H221.2c-11.7,0-21.3,9.5-21.3,21.3V300v100v78.8    c0,11.7,9.5,21.3,21.3,21.3h257.5c11.7,0,21.3-9.5,21.3-21.3V400z"/>
</svg>
<svg version="1.1" id="Ebene_1" x="1427" y="173" viewBox="0 0 700 700" style="enable-background:new 0 0 700 700;" xml:space="preserve" width="399" height="399" shape-rendering="auto">

<path fill="#000000" d="M21.2-0.1C9.5-0.1-0.1,9.5-0.1,21.2v78.8v100v100v100v100v100v78.8c0,11.7,9.5,21.3,21.3,21.3h657.6  c11.7,0,21.3-9.5,21.3-21.3V600V500V400V300V200v-100V21.2c0-11.7-9.5-21.3-21.3-21.3H21.2z M600,200v100v100v100v87.8  c0,6.8-5.5,12.2-12.2,12.2H112.2c-6.8,0-12.2-5.5-12.2-12.2V500V400V300V200v-87.8c0-6.8,5.5-12.2,12.2-12.2h475.6  c6.8,0,12.2,5.5,12.2,12.2V200z"/>
</svg>
<svg version="1.1" id="Ebene_1" x="1427" y="173" viewBox="0 0 700 700" style="enable-background:new 0 0 700 700;" xml:space="preserve" width="399" height="399" shape-rendering="auto">

<path fill="#000000" d="M500,400V300v-78.8c0-11.7-9.5-21.3-21.3-21.3H221.2c-11.7,0-21.3,9.5-21.3,21.3V300v100v78.8    c0,11.7,9.5,21.3,21.3,21.3h257.5c11.7,0,21.3-9.5,21.3-21.3V400z"/>
</svg>
<svg version="1.1" id="Ebene_1" x="173" y="1427" viewBox="0 0 700 700" style="enable-background:new 0 0 700 700;" xml:space="preserve" width="399" height="399" shape-rendering="auto">

<path fill="#000000" d="M21.2-0.1C9.5-0.1-0.1,9.5-0.1,21.2v78.8v100v100v100v100v100v78.8c0,11.7,9.5,21.3,21.3,21.3h657.6  c11.7,0,21.3-9.5,21.3-21.3V600V500V400V300V200v-100V21.2c0-11.7-9.5-21.3-21.3-21.3H21.2z M600,200v100v100v100v87.8  c0,6.8-5.5,12.2-12.2,12.2H112.2c-6.8,0-12.2-5.5-12.2-12.2V500V400V300V200v-87.8c0-6.8,5.5-12.2,12.2-12.2h475.6  c6.8,0,12.2,5.5,12.2,12.2V200z"/>
</svg>
<svg version="1.1" id="Ebene_1" x="173" y="1427" viewBox="0 0 700 700" style="enable-background:new 0 0 700 700;" xml:space="preserve" width="399" height="399" shape-rendering="auto">

<path fill="#000000" d="M500,400V300v-78.8c0-11.7-9.5-21.3-21.3-21.3H221.2c-11.7,0-21.3,9.5-21.3,21.3V300v100v78.8    c0,11.7,9.5,21.3,21.3,21.3h257.5c11.7,0,21.3-9.5,21.3-21.3V400z"/>
</svg>
<svg version="1.0" id="Layer_1" x="714" y="714" viewBox="0 0 700 700" enable-background="new 0 0 700 700" xml:space="preserve" width="570" height="570" shape-rendering="auto">
<g>
	<g>
		<g>
			<path fill="#000000" d="M172.3,220.5c0-5.7-2-10.3-6.1-13.8c-4-3.5-11.1-6.7-21.3-9.8c-17.7-5.1-31-11.1-40.1-18.1     s-13.6-16.6-13.6-28.7s5.2-22.1,15.6-29.8c10.4-7.7,23.6-11.6,39.7-11.6c16.3,0,29.6,4.3,39.9,13c10.3,8.7,15.2,19.3,14.9,32.1     l-0.2,0.6h-28.8c0-6.9-2.3-12.4-6.9-16.7c-4.6-4.2-11-6.4-19.3-6.4c-8,0-14.1,1.8-18.5,5.3c-4.3,3.5-6.5,8.1-6.5,13.6     c0,5,2.3,9.2,7,12.4c4.7,3.2,12.7,6.6,24.1,10.2c16.4,4.6,28.8,10.6,37.2,18s12.6,17.3,12.6,29.5c0,12.7-5,22.7-15,30.1     c-10,7.3-23.3,11-39.7,11c-16.2,0-30.3-4.2-42.3-12.5c-12-8.3-17.9-20-17.5-35l0.2-0.6h29c0,8.8,2.7,15.3,8.1,19.4     c5.4,4.1,12.9,6.2,22.6,6.2c8.1,0,14.3-1.7,18.6-5C170.2,230.6,172.3,226.1,172.3,220.5z"/>
			<path fill="#000000" d="M336.7,208.7l0.2,0.6c0.3,16-4.6,28.6-14.6,38c-10,9.4-23.9,14.1-41.7,14.1c-17.9,0-32.4-5.7-43.5-17.2     s-16.7-26.3-16.7-44.3v-29.5c0-18,5.4-32.8,16.3-44.3s25-17.3,42.4-17.3c18.3,0,32.7,4.7,43,14.1c10.3,9.4,15.4,22.2,15.1,38.5     l-0.2,0.6h-29c0-9.8-2.3-17.3-7-22.5c-4.7-5.2-12-7.8-21.9-7.8c-8.9,0-16,3.6-21.2,10.8c-5.2,7.2-7.8,16.4-7.8,27.7v29.6     c0,11.3,2.8,20.6,8.3,27.9c5.5,7.2,12.9,10.8,22.3,10.8c9.3,0,16.2-2.5,20.6-7.5c4.4-5,6.7-12.4,6.7-22.3H336.7z"/>
			<path fill="#000000" d="M437.7,227.3h-52.1l-10.1,32h-30.1l51.1-148.4H427l50.9,148.4h-30.1L437.7,227.3z M392.9,203.9h37.4     L412,145.6h-0.6L392.9,203.9z"/>
			<path fill="#000000" d="M611.7,259.3H582l-59.9-101.4l-0.6,0.1v101.3h-29.8V110.9h29.8l59.9,101.3l0.6-0.1V110.9h29.7V259.3z"/>
		</g>
		<g>
			<path fill="#000000" d="M135.3,314.8l88.1,224.6h1.1l88.1-224.6h47.8v276.5h-37.4V481.9l3.8-112.4l-0.9-0.2l-89.6,222h-24.9     l-89.2-221.4l-0.9,0.2l3.6,111.8v109.4H87.5V314.8H135.3z"/>
			<path fill="#000000" d="M593.1,463.1H466.5v98.7h146v29.4H429.1V314.8h181.3v29.4H466.5v89.4h126.6V463.1z"/>
		</g>
	</g>
</g>
</svg>
</svg>

	<path id="FrameBody" class="frame-color" d="M265.4,0H13.7C6.1,0,0,6.1,0,13.7v251.6c0,7.6,6.2,13.7,13.7,13.7h251.6c7.6,0,13.7-6.1,13.8-13.6V13.7
	C279.1,6.1,272.9,0,265.4,0z M268.5,261.1c0,4.1-3.3,7.4-7.4,7.4H17.9c-4.1,0-7.4-3.3-7.4-7.4V17.9c0-4.1,3.3-7.4,7.4-7.4h243.2
	c4.1,0,7.4,3.3,7.4,7.4V261.1z"/>
	<svg id="TextArea" x="0" y="275" width="279" height="90" viewBox="0 0 53.044921875 17.588541666667" preserveAspectRatio="xMidYMid meet">
<svg version="1.1" xmlns="http://www.w3.org/2000/svg"><path class="frame-color" fill="#FFFFFF" d=" M8.37890625,11.09130859375q0,1.02587890625-0.7412109375,1.61669921875t-2.0625,0.5908203125q-1.396484375,0-2.1591796875-0.37060546875l0-0.9453125q0.49951171875,0.21484375,1.093017578125,0.33837890625t1.109130859375,0.12353515625q0.880859375,0,1.32666015625-0.33837890625t0.44580078125-0.92919921875q0-0.39208984375-0.1611328125-0.64453125t-0.539794921875-0.47265625t-1.146728515625-0.49951171875q-1.09033203125-0.3974609375-1.5576171875-0.937255859375t-0.46728515625-1.393798828125q0-0.91845703125,0.690185546875-1.4609375t1.818115234375-0.54248046875q1.17626953125,0,2.16455078125,0.4404296875l-0.30615234375,0.8486328125q-1.009765625-0.4189453125-1.8798828125-0.4189453125q-0.6982421875,0-1.093017578125,0.30078125t-0.394775390625,0.84326171875q0,0.38671875,0.153076171875,0.641845703125t0.494140625,0.464599609375t1.071533203125,0.47802734375q0.87548828125,0.322265625,1.30517578125,0.625732421875t0.6337890625,0.6982421875t0.2041015625,0.942626953125z M13.32568359375,6.09619140625q-1.267578125,0-1.99267578125,0.8486328125t-0.72509765625,2.3203125q0,1.52001953125,0.70361328125,2.344482421875t2.00341796875,0.824462890625q0.837890625,0,1.88525390625-0.3115234375l0,0.859375q-0.49951171875,0.1826171875-0.96142578125,0.249755859375t-1.0634765625,0.067138671875q-1.73486328125,0-2.672119140625-1.055419921875t-0.937255859375-2.989013671875q0-1.2138671875,0.448486328125-2.126953125t1.30517578125-1.4072265625t2.016845703125-0.494140625q1.24609375,0,2.169921875,0.4619140625l-0.3974609375,0.837890625q-0.93994140625-0.4296875-1.783203125-0.4296875z M21.8388671875,13.19140625l-0.9453125-2.43310546875l-3.115234375,0l-0.9345703125,2.43310546875l-0.9990234375,0l3.06689453125-7.884765625l0.8916015625,0l3.0615234375,7.884765625l-1.02587890625,0z M20.59814453125,9.8828125l-0.880859375-2.37939453125l-0.3759765625-1.17626953125q-0.1611328125,0.64453125-0.33837890625,1.17626953125l-0.8916015625,2.37939453125l2.48681640625,0z M30.16943359375,13.19140625l-1.15478515625,0l-4.20556640625-6.5205078125l-0.04296875,0l0.02685546875,0.43505859375q0.064453125,0.9775390625,0.064453125,1.697265625l0,4.38818359375l-0.9130859375,0l0-7.8525390625l1.14404296875,0l0.24169921875,0.38134765625l2.578125,3.9853515625l1.36962890625,2.13232421875l0.04296875,0q-0.0107421875-0.12890625-0.04296875-0.921142578125t-0.0322265625-1.146728515625l0-4.43115234375l0.923828125,0l0,7.8525390625z  M38.62353515625,13.19140625l-2.5888671875-6.8857421875l-0.04296875,0q0.08056640625,0.859375,0.08056640625,2.12158203125l0,4.76416015625l-0.9130859375,0l0-7.8525390625l1.4609375,0l2.42236328125,6.4345703125l0.04296875,0l2.46533203125-6.4345703125l1.4501953125,0l0,7.8525390625l-0.9775390625,0l0-4.82861328125q0-0.8056640625,0.0751953125-2.04638671875l-0.04296875,0l-2.62109375,6.875l-0.81103515625,0z M49.52685546875,13.19140625l-4.38818359375,0l0-7.8525390625l4.38818359375,0l0,0.8701171875l-3.39990234375,0l0,2.44921875l3.201171875,0l0,0.859375l-3.201171875,0l0,2.8037109375l3.39990234375,0l0,0.8701171875z "/></svg>
</svg>
	
</svg>
